<svg width="70" height="66" viewBox="0 0 70 66" fill="none" xmlns="http://www.w3.org/2000/svg">
  <path
    d="M25.7071 8.18537C26.356 6.38022 27.2483 4.71834 28.5733 3.37164C33.873 -2.10112 42.6339 -0.725764 46.2301 6.15099C48.9341 11.3659 51.8003 16.4661 54.5854 21.6237L68.5378 47.3542C72.4044 54.5462 68.2133 63.6292 60.5341 64.8613C55.8292 65.6063 51.4217 63.3141 48.9882 58.8442L36.7122 36.2655C36.6311 36.0935 36.5229 35.9503 36.4148 35.807C35.9821 35.4345 35.7928 34.8901 35.5224 34.403L26.4912 17.8128C25.4367 15.8644 24.95 13.7441 25.0041 11.5091C25.0852 10.363 25.2204 9.21688 25.7071 8.18537Z"
    fill="#2AEBF8" />
  <path
    d="M21.7791 14.363C21.5472 15.2909 21.341 16.2188 21.2894 17.1982C21.2121 19.3633 21.7534 21.3737 22.8359 23.2552L31.3158 37.9209C31.5736 38.3591 31.7798 38.7973 32.0375 39.2097L27.3723 47.2255L20.8512 58.4632C20.7481 58.4632 20.7224 58.4117 20.6966 58.3343C20.6708 58.1281 20.7481 57.9477 20.7997 57.7415C21.8565 53.8753 20.9801 50.4473 18.3253 47.509C16.7015 45.7306 14.6395 44.7254 12.2682 44.3903C9.17525 43.9522 6.44312 44.7512 3.99452 46.6843C3.55635 47.0193 3.27282 47.509 2.75733 47.7668C2.65423 47.7668 2.60268 47.7152 2.5769 47.6379L6.2627 41.2201L21.5987 14.6466C21.6503 14.5435 21.7276 14.4661 21.7791 14.363Z"
    fill="#04FA1D" />
  <path
    d="M2.68001 47.7152L4.14917 46.4007C10.4124 41.452 19.8203 45.0346 21.1863 52.8701C21.5214 54.7516 21.341 56.5558 20.7739 58.3601C20.7481 58.5147 20.7224 58.6436 20.6708 58.7982C20.4388 59.2106 20.2326 59.6488 19.9749 60.0612C17.6809 63.85 14.3044 65.7316 9.87118 65.448C4.79354 65.0872 0.798448 61.2726 0.102529 56.2208C-0.232544 53.7722 0.257177 51.4783 1.52014 49.3648C1.77789 48.9008 2.08719 48.4884 2.37071 48.0245C2.49959 47.9214 2.44804 47.7152 2.68001 47.7152Z"
    fill="#04FA1D" />
  <path
    d="M6.68002 40.7153C6.57692 40.8184 6.57692 40.9988 6.39649 41.0246C6.37072 40.8442 6.47382 40.7411 6.57692 40.6122L6.68002 40.7153Z"
    fill="#FABC04" />
  <path d="M24.6708 51.7983C24.5677 51.6179 24.6708 51.489 24.7739 51.3601L24.877 51.4632L24.6708 51.7983Z"
    fill="#E1C025" />
</svg>