<svg width="316" height="310" viewBox="0 0 316 310" fill="none" xmlns="http://www.w3.org/2000/svg">
<path fill-rule="evenodd" clip-rule="evenodd" d="M75.987 76.48L0 152.472L7.97099 160.49L15.942 168.508L38.173 146.294L60.405 124.079L63.037 126.536C64.484 127.887 71.492 134.822 78.609 141.947L91.55 154.901L69.27 177.197L46.99 199.494L54.99 207.494L62.99 215.493L86.333 192.134L109.677 168.774L107.684 160.884C106.587 156.544 105.754 152.92 105.832 152.831C105.91 152.742 109.492 153.61 113.793 154.759L121.611 156.848L137.05 141.409L152.489 125.97L152.232 63.229L151.974 0.487991L75.987 76.48ZM163.474 63.132V126.264L208.19 170.89L252.906 215.517L260.634 207.834C266.604 201.899 268.157 199.792 267.461 198.572C266.965 197.704 258.666 189.138 249.019 179.537L231.478 162.081L254.726 138.733C267.512 125.891 278.068 115.277 278.184 115.145C278.299 115.014 252.537 89.052 220.934 57.453L163.474 0V63.132ZM118.542 127.914L107.579 138.876L92.039 123.435L76.499 107.993L102.736 81.735L128.974 55.478L129.239 86.215L129.504 116.952L118.542 127.914ZM231.23 130.237C222.849 138.631 215.649 145.385 215.229 145.245C214.809 145.105 208.167 138.738 200.47 131.096L186.474 117.201V86.103V55.006L216.471 84.99L246.469 114.975L231.23 130.237ZM114.958 179.525C91.317 203.206 71.769 222.805 71.518 223.077C70.903 223.744 156.693 309.493 157.974 309.493C158.529 309.493 178.327 290.145 201.97 266.497L244.958 223.5L228.976 207.495L212.993 191.489L204.999 199.483L197.005 207.477L204.977 215.496L212.948 223.514L185.457 251.006L157.965 278.498L130.476 250.995L102.988 223.493L130.467 196L157.946 168.507L165.982 176.501L174.018 184.496L181.982 176.484L189.947 168.473L173.944 152.471L157.941 136.468L114.958 179.525ZM291.983 144.484L284.022 152.491L291.473 159.992C295.571 164.118 299.396 167.493 299.974 167.493C300.552 167.493 304.38 164.114 308.483 159.984L315.941 152.475L307.942 144.476L299.943 136.477L291.983 144.484Z" fill="black"/>
</svg>
